<svg height="512" viewBox="0 0 512 512" width="512" xmlns="http://www.w3.org/2000/svg"><g id="flat"><path d="m288 264v-160h40l-72-80-72 80h40v160z" fill="#ffc431"/><path d="m336 288a24 24 0 0 0 24-24v-24a16 16 0 0 1 16-16h32v40l80-72-80-72v40h-40.00006a55.99994 55.99994 0 0 0 -55.99994 55.99994v24.00006l-112-.0026v-24.00006a55.99994 55.99994 0 0 0 -55.99994-55.99994h-40.00006v-40l-80 72 80 72v-40h32a16 16 0 0 1 16 16v24a24 24 0 0 0 24 24z" fill="#ef5e3b"/><path d="m192 352h-8l-16-24 16-64 56-24h32l56 24 16 56-16 32h-8l-8 40h-112z" fill="#548aff"/><path d="m280 200v24a24 24 0 0 1 -24 24 24 24 0 0 1 -24-24v-24z" fill="#ffceb6"/><path d="m232 200v-13.57781a18.42218 18.42218 0 0 1 18.42219-18.42219 18.42223 18.42223 0 0 1 10.21879 3.094l19.35902 12.906v16z" fill="#b1712c"/><path d="m312 392 4.267 96h-36.267l-24-48-24 48h-36.267l4.267-96z" fill="#62798c"/><path d="m320 352h-32l-32-16-24 16h-40l8 40h112z" fill="#4976f2"/><path d="m296.682 290.748h16.001v32.293h-16.001z" fill="#4976f2" transform="matrix(.316 -.949 .949 .316 -82.812 498.892)"/><g fill="#ffceb6"><path d="m258.909 291.636-50.909 20.364v-32h16z"/><path d="m264.667 289.333 15.333 30.667 24-16v-24h-16z"/></g></g></svg>