<svg id="Capa_1" enable-background="new 0 0 512 512" height="512" viewBox="0 0 512 512" width="512" xmlns="http://www.w3.org/2000/svg"><g><g><g><path d="m24.701 198.789-22.725 39.769c-1.295 2.266-1.976 4.832-1.976 7.442v210c0 8.284 6.716 15 15 15h110v-295c0-8.284-6.716-15-15-15h-20.181c-26.846 0-51.798 14.48-65.118 37.789z" fill="#ffc89a"/></g><g><g><path d="m385 512h-230c-24.853 0-45-20.147-45-45v-422c0-24.853 20.147-45 45-45h230c24.853 0 45 20.147 45 45v422c0 24.853-20.147 45-45 45z" fill="#0a617d"/></g></g><path d="m385 0h-115v512h115c24.853 0 45-20.147 45-45v-422c0-24.853-20.147-45-45-45z" fill="#08475e"/><g fill="#fab68c"><path d="m473.25 238.5h-64.5c-21.401 0-38.75-17.349-38.75-38.75 0-21.401 17.349-38.75 38.75-38.75h64.5c21.401 0 38.75 17.349 38.75 38.75 0 21.401-17.349 38.75-38.75 38.75z"/><path d="m473.25 316h-64.5c-21.401 0-38.75-17.349-38.75-38.75 0-21.401 17.349-38.75 38.75-38.75h64.5c21.401 0 38.75 17.349 38.75 38.75 0 21.401-17.349 38.75-38.75 38.75z"/><path d="m473.25 393.5h-64.5c-21.401 0-38.75-17.349-38.75-38.75 0-21.401 17.349-38.75 38.75-38.75h64.5c21.401 0 38.75 17.349 38.75 38.75 0 21.401-17.349 38.75-38.75 38.75z"/><path d="m473.25 471h-64.5c-21.401 0-38.75-17.349-38.75-38.75 0-21.401 17.349-38.75 38.75-38.75h64.5c21.401 0 38.75 17.349 38.75 38.75 0 21.401-17.349 38.75-38.75 38.75z"/></g><g><g><path d="m270 266.5c-35.841 0-65-29.159-65-65s29.159-65 65-65 65 29.159 65 65-29.159 65-65 65z" fill="#ff6378"/></g><circle cx="210" cy="80.5" fill="#ffe278" r="15"/><circle cx="270" cy="80.5" fill="#ff6378" r="15"/><circle cx="330" cy="80.5" fill="#00a763" r="15"/><g><path d="m270 446.5c-35.841 0-65-29.159-65-65s29.159-65 65-65 65 29.159 65 65-29.159 65-65 65z" fill="#85dc1e"/></g></g><path d="m270 136.5v130c35.841 0 65-29.159 65-65s-29.159-65-65-65z" fill="#e20059"/><path d="m270 316.5v130c35.841 0 65-29.159 65-65s-29.159-65-65-65z" fill="#00a763"/><path d="m270 65.5v30c8.284 0 15-6.716 15-15s-6.716-15-15-15z" fill="#e20059"/></g><path d="m110 331c29.677-8.903 50-36.218 50-67.201v-25.299h71.25c21.401 0 38.75-17.349 38.75-38.75 0-21.401-17.349-38.75-38.75-38.75h-141.431c-26.847 0-51.798 14.48-65.118 37.789l-22.725 39.769" fill="#ffc89a"/></g></svg>