<svg id="Layer_1" enable-background="new 0 0 256 256" height="512" viewBox="0 0 256 256" width="512" xmlns="http://www.w3.org/2000/svg"><g><circle cx="52.074" cy="36.569" fill="#9e9e9e" r="21.323"/><g><path d="m37.251 36.569c0-10.668 7.843-19.481 18.073-21.05-1.062-.163-2.142-.273-3.25-.273-11.776 0-21.323 9.547-21.323 21.323 0 11.777 9.547 21.323 21.323 21.323 1.108 0 2.188-.111 3.25-.273-10.23-1.569-18.073-10.382-18.073-21.05z" fill="#707070"/></g><path d="m81.59 105.277h-59.031v-24.4c0-12.695 10.291-22.985 22.985-22.985h13.06c12.695 0 22.985 10.291 22.985 22.985v24.4z" fill="#f46275"/><g><path d="m52.044 57.892h-6.5c-12.695 0-22.985 10.291-22.985 22.985v24.399h6.5v-24.399c0-12.694 10.291-22.985 22.985-22.985z" fill="#f43075"/></g><circle cx="52.074" cy="161.073" fill="#9e9e9e" r="21.323"/><g><path d="m37.251 161.073c0-10.668 7.843-19.481 18.073-21.05-1.062-.163-2.142-.273-3.25-.273-11.776 0-21.323 9.547-21.323 21.323s9.547 21.323 21.323 21.323c1.108 0 2.188-.111 3.25-.273-10.23-1.568-18.073-10.381-18.073-21.05z" fill="#707070"/></g><path d="m81.59 229.781h-59.031v-24.399c0-12.695 10.291-22.985 22.985-22.985h13.06c12.695 0 22.985 10.291 22.985 22.985v24.399z" fill="#63bce7"/><g><path d="m52.044 182.397h-6.5c-12.695 0-22.985 10.291-22.985 22.985v24.399h6.5v-24.399c0-12.694 10.291-22.985 22.985-22.985z" fill="#6377e7"/></g><circle cx="203.926" cy="107.366" fill="#9e9e9e" r="21.323"/><g><path d="m203.926 86.043c-1.108 0-2.188.111-3.25.273 10.23 1.569 18.073 10.381 18.073 21.05 0 10.668-7.843 19.481-18.073 21.05 1.062.163 2.142.273 3.25.273 11.776 0 21.323-9.547 21.323-21.323s-9.547-21.323-21.323-21.323z" fill="#cecece"/></g><path d="m233.441 176.074h-59.031v-24.399c0-12.695 10.291-22.985 22.985-22.985h13.06c12.695 0 22.985 10.291 22.985 22.985v24.399z" fill="#f8af23"/><g><path d="m210.456 128.689h-6.5c12.695 0 22.985 10.291 22.985 22.986v24.399h6.5v-24.399c0-12.695-10.29-22.986-22.985-22.986z" fill="#f8d323"/></g><g><path d="m154.607 140.753c-.279.778-.594 1.526-.939 2.267l6.971 6.971-13.707 13.707-6.971-6.971c-.741.345-1.497.66-2.267.939v9.862h-19.379v-9.862c-.77-.279-1.526-.594-2.267-.939l-6.971 6.971-13.707-13.707 6.971-6.971c-.345-.741-.66-1.49-.939-2.267h-9.862v-19.379h9.862c.279-.771.594-1.526.939-2.267l-6.971-6.971 13.707-13.707 6.971 6.978c.741-.345 1.497-.668 2.267-.947v-9.855h19.379v9.855c.77.279 1.526.602 2.267.947l6.971-6.978 13.707 13.707-6.971 6.971c.345.741.66 1.497.939 2.267h9.855v19.379z" fill="#9e9e9e"/><circle cx="128" cy="131.065" fill="#f8af23" r="12.341"/></g><g fill="#3f3679"><path d="m141.841 131.064c0-7.631-6.209-13.84-13.841-13.84s-13.841 6.209-13.841 13.84c0 7.632 6.209 13.841 13.841 13.841s13.841-6.209 13.841-13.841zm-24.682 0c0-5.978 4.863-10.84 10.841-10.84s10.841 4.862 10.841 10.84-4.863 10.841-10.841 10.841-10.841-4.863-10.841-10.841z"/><path d="m27.323 239.254h-18.003c-.829 0-1.5.672-1.5 1.5s.671 1.5 1.5 1.5h18.003c.829 0 1.5-.672 1.5-1.5s-.671-1.5-1.5-1.5z"/><path d="m246.68 239.254h-18.003c-.828 0-1.5.672-1.5 1.5s.672 1.5 1.5 1.5h18.003c.828 0 1.5-.672 1.5-1.5s-.672-1.5-1.5-1.5z"/><path d="m218.479 239.254h-180.958c-.829 0-1.5.672-1.5 1.5s.671 1.5 1.5 1.5h180.959c.828 0 1.5-.672 1.5-1.5s-.672-1.5-1.501-1.5z"/><path d="m9.32 231.281h13.239 59.031 165.09c.828 0 1.5-.672 1.5-1.5s-.672-1.5-1.5-1.5h-163.59v-22.899c0-10.916-7.182-20.184-17.069-23.334h61.979c.829 0 1.5-.672 1.5-1.5v-11.521h8.19c.828 0 1.5-.672 1.5-1.5v-8.827c.145-.06.289-.12.436-.183l6.243 6.244c.281.281.663.439 1.061.439s.779-.158 1.061-.439l13.705-13.705c.586-.586.586-1.535 0-2.121l-6.243-6.244c.063-.146.123-.291.182-.435h8.828c.828 0 1.5-.672 1.5-1.5v-8.197h16.159c-5.609 4.491-9.211 11.389-9.211 19.116v24.399c0 .828.672 1.5 1.5 1.5h59.031c.828 0 1.5-.672 1.5-1.5v-24.399c0-12.096-8.82-22.166-20.365-24.132 7.232-3.833 12.172-11.437 12.172-20.177 0-12.585-10.238-22.823-22.823-22.823s-22.823 10.238-22.823 22.823c0 8.74 4.94 16.344 12.172 20.177-2.25.383-4.398 1.07-6.396 2.024-.029-.002-.057-.009-.087-.009h-20.83v-8.185c0-.828-.672-1.5-1.5-1.5h-8.828c-.059-.144-.119-.288-.182-.435l6.243-6.244c.586-.586.586-1.535 0-2.121l-13.705-13.704c-.563-.563-1.559-.563-2.121 0l-6.243 6.244c-.146-.063-.291-.123-.436-.183v-8.827c0-.828-.672-1.5-1.5-1.5h-8.19v-11.52c0-.828-.671-1.5-1.5-1.5h-44.93c-.376-11.74-9.053-21.416-20.345-23.339 7.232-3.833 12.172-11.437 12.172-20.177 0-12.584-10.238-22.822-22.823-22.822s-22.823 10.239-22.823 22.823c0 8.74 4.94 16.344 12.172 20.177-11.545 1.966-20.365 12.035-20.365 24.132v24.399c0 .828.671 1.5 1.5 1.5h59.032c.829 0 1.5-.672 1.5-1.5v-22.192h43.41v10.02h-8.191c-.829 0-1.5.672-1.5 1.5v8.828c-.144.059-.289.119-.435.182l-6.244-6.244c-.281-.281-.663-.439-1.061-.439s-.779.158-1.061.439l-13.705 13.705c-.586.586-.586 1.535 0 2.121l6.244 6.244c-.063.146-.123.29-.182.435h-8.829c-.829 0-1.5.672-1.5 1.5v19.382c0 .828.671 1.5 1.5 1.5h8.829c.059.145.119.289.182.435l-6.244 6.244c-.586.586-.586 1.535 0 2.121l13.705 13.705c.563.563 1.559.563 2.121 0l6.244-6.244c.146.063.291.123.435.182v8.828c0 .828.671 1.5 1.5 1.5h8.191v10.021h-60.385c5.341-4.181 8.784-10.681 8.784-17.975 0-12.585-10.238-22.823-22.823-22.823s-22.823 10.238-22.823 22.823c0 8.74 4.94 16.344 12.172 20.177-11.545 1.966-20.365 12.035-20.365 24.132v22.899h-11.739c-.829 0-1.5.672-1.5 1.5s.671 1.499 1.5 1.499zm174.783-123.915c0-10.931 8.893-19.823 19.823-19.823s19.823 8.893 19.823 19.823-8.893 19.823-19.823 19.823-19.823-8.892-19.823-19.823zm26.353 22.823c11.847 0 21.485 9.639 21.485 21.485v22.899h-56.031v-22.899c0-11.847 9.639-21.485 21.485-21.485zm-178.205-93.621c0-10.93 8.893-19.822 19.823-19.822s19.823 8.893 19.823 19.822c0 10.931-8.893 19.823-19.823 19.823s-19.823-8.892-19.823-19.823zm47.839 67.208h-56.031v-22.899c0-11.847 9.638-21.485 21.485-21.485h13.06c11.847 0 21.486 9.639 21.486 21.485zm38.733 52.486c-.691-.252-1.393-.545-2.145-.896-.57-.266-1.248-.147-1.694.299l-5.913 5.914-11.584-11.584 5.914-5.914c.446-.446.565-1.124.298-1.695-.349-.746-.641-1.447-.894-2.143-.216-.593-.779-.987-1.41-.987h-8.356v-16.382h8.356c.63 0 1.194-.395 1.41-.986.253-.696.545-1.397.894-2.144.267-.571.148-1.249-.298-1.695l-5.914-5.914 11.584-11.584 5.913 5.914c.446.447 1.124.565 1.694.299.752-.351 1.454-.644 2.145-.896.592-.216.986-.778.986-1.409v-8.355h16.381v8.355c0 .631.395 1.193.986 1.409.691.252 1.393.545 2.146.896.571.267 1.249.148 1.694-.299l5.913-5.914 11.584 11.584-5.913 5.914c-.446.446-.565 1.123-.299 1.694.349.749.642 1.45.895 2.145.216.592.778.986 1.409.986h8.356v16.382h-8.356c-.631 0-1.193.395-1.409.987-.253.693-.546 1.395-.895 2.144-.267.571-.147 1.248.299 1.694l5.913 5.914-11.584 11.584-5.913-5.914c-.445-.447-1.124-.566-1.694-.299-.753.351-1.454.644-2.146.896-.592.216-.986.778-.986 1.409v8.355h-16.381v-8.355c0-.631-.394-1.193-.986-1.409zm-86.572 4.811c0-10.931 8.893-19.823 19.823-19.823s19.823 8.893 19.823 19.823-8.893 19.823-19.823 19.823-19.823-8.892-19.823-19.823zm-8.192 44.309c0-11.847 9.638-21.485 21.485-21.485h13.06c11.847 0 21.486 9.639 21.486 21.485v22.899h-56.031z"/></g></g></svg>