<?xml version="1.0"?>
<svg xmlns="http://www.w3.org/2000/svg" id="flat" viewBox="0 0 512 512" width="512" height="512"><path d="M112.00136,391.99939a32.00012,32.00012,0,0,1-31.99951-32.00012V304H184V248H72.00111a48,48,0,0,0-48,47.99926L24,367.99993A87.99871,87.99871,0,0,0,111.99872,456H415.99941v32L488,424l-72.00059-64v32Z" style="fill:#548aff"/><path d="M400.00111,120.005a32.00044,32.00044,0,0,1,32.00014,32.00012v55.99927H328.00107v56H440.00214a48.00047,48.00047,0,0,0,48.00094-47.99926l.0011-72.00067a87.99957,87.99957,0,0,0-88.00043-88.00007H95.99715v-32l-72.002,64,72.002,64v-32Z" style="fill:#548aff"/><path d="M376,280h32V232H383.87988A10.26323,10.26323,0,0,1,378.74,212.8501L399.64014,200.78l-24-41.56006L354.74,171.28a10.26292,10.26292,0,0,1-14.02-14.02L352.78,136.35986l-41.56006-24L299.1499,133.26A10.264,10.264,0,0,1,280,128.12012V104H232v24.12012a10.2642,10.2642,0,0,1-7.60986,9.91992,10.07472,10.07472,0,0,1-2.66016.3501A10.24631,10.24631,0,0,1,212.8501,133.26L200.78,112.35986l-41.56006,24L171.28,157.26a10.26292,10.26292,0,0,1-14.02,14.02L136.35986,159.22l-24,41.56006L133.26,212.8501A10.26323,10.26323,0,0,1,128.12012,232H104v48h24.12012A10.26323,10.26323,0,0,1,133.26,299.1499L112.35986,311.22l24,41.56006L157.26,340.72a10.26292,10.26292,0,0,1,14.02,14.02L159.22,375.64014l41.56006,24L212.8501,378.74A10.264,10.264,0,0,1,232,383.87988V408h48V383.87988a10.264,10.264,0,0,1,7.60986-9.91992,10.07472,10.07472,0,0,1,2.66016-.3501A10.24631,10.24631,0,0,1,299.1499,378.74L311.22,399.64014l41.56006-24L340.72,354.74a10.26292,10.26292,0,0,1,14.02-14.02L375.64014,352.78l24-41.56006L378.74,299.1499a10.2652,10.2652,0,0,1-4.78-11.54ZM256,312a56,56,0,1,1,56-56A55.99746,55.99746,0,0,1,256,312Z" style="fill:#ffc431"/><path d="M256,160a96,96,0,1,0,96,96A96.00134,96.00134,0,0,0,256,160Zm0,152a56,56,0,1,1,56-56A55.99746,55.99746,0,0,1,256,312Z" style="fill:#ffb401"/></svg>
