<svg id="Capa_1" enable-background="new 0 0 512.215 512.215" height="512" viewBox="0 0 512.215 512.215" width="512" xmlns="http://www.w3.org/2000/svg"><g><g><path d="m406.106 281.459h30.003v67.082h-30.003z" fill="#3d4b66" transform="matrix(.894 -.447 .447 .894 -96.415 221.581)"/></g><g><path d="m406.106 281.459h30.003v67.082h-30.003z" fill="#2e384d" transform="matrix(.894 -.447 .447 .894 -96.415 221.581)"/></g><path d="m512.108 300h-332v-90h-120v-210h452z" fill="#4d5e80"/><path d="m286.108 0h226v300h-226z" fill="#3d4b66"/><g><g><path d="m210.108 270h272v-240h-392v150z" fill="#ffdf80"/></g></g><path d="m286.108 30h196v240h-196z" fill="#ffcb66"/><g id="Phone_connection_1_"><g><path d="m120.108 512h90v-332h-210v332h90c1.503-3.006 16.503-33.006 15-30 1.503 3.006 16.503 33.006 15 30z" fill="#4d5e80"/></g><g><path d="m391.108 225v15h-30v-15c0-47.401-31.8-87.601-75-100.501-9.6-2.999-19.501-4.499-30-4.499h-15v-30h15c10.201 0 20.4 1.199 30 3.6 60 13.5 105 67.2 105 131.4z" fill="#4d5e80"/></g><g><path d="m331.108 225v15h-30v-15c0-13.2-5.7-25.201-15-33.3-7.8-7.202-18.3-11.7-30-11.7h-15v-30h15c10.499 0 20.7 2.1 30 6.299 26.4 11.4 45 37.8 45 68.701z" fill="#4d5e80"/></g><g><path d="m241.108 210h30v30h-30z" fill="#4d5e80"/></g></g><path d="m105.108 482c1.835 3.668 16.501 33.001 15 30h90v-332c-4.98 0-55.02 0-105 0z" fill="#3d4b66"/><path d="m30.108 210h150v272h-150z" fill="#ffdf80"/><path d="m105.108 210h75v272h-75z" fill="#ffcb66"/><g><path d="m90.108 240h30v30h-30z" fill="#4d5e80"/></g><g><path d="m90.108 452h30v60h-30z" fill="#4d5e80"/></g><g fill="#3d4b66"><path d="m105.108 240h15v30h-15z"/><path d="m105.108 512h15c0 3.246 0-56.667 0-60 1.663 0-6.665 0-15 0z"/><path d="m331.108 225v15h-30v-15c0-13.2-5.7-25.201-15-33.3v-35.402c26.4 11.401 45 37.801 45 68.702z"/><path d="m391.108 225v15h-30v-15c0-47.401-31.8-87.601-75-100.501v-30.899c60 13.5 105 67.2 105 131.4z"/></g></g></svg>