<svg height="512pt" viewBox="0 0 512 511" width="512pt" xmlns="http://www.w3.org/2000/svg"><path d="m0 .5h512v511.328125h-512zm0 0" fill="#fe8205"/><path d="m255.445312.5h256.554688v511.328125h-256.554688zm0 0" fill="#e56022"/><path d="m268.046875 52.433594h189.171875v410.195312h-189.171875zm0 0" fill="#1e4550"/><path d="m54.113281 52.433594h189.167969v410.195312h-189.167969zm0 0" fill="#3282af"/><path d="m268.699219 242.433594h28.886719v30.195312h-28.886719zm0 0" fill="#41739b"/><path d="m213.742188 242.433594h28.886718v30.195312h-28.886718zm0 0" fill="#46a5cd"/><path d="m362.632812 110.550781c-22.203124 0-40.261718 18.0625-40.261718 40.261719v58.484375h80.523437v-58.484375c0-22.199219-18.0625-40.261719-40.261719-40.261719zm0 0" fill="#fe8205"/><path d="m148.699219 237.214844c-22.203125 0-40.265625 18.0625-40.265625 40.261718v58.484376h80.527344v-58.484376c0-22.199218-18.0625-40.261718-40.261719-40.261718zm0 0" fill="#ffb13b"/><path d="m108.433594 110.550781h80.527344v98.746094h-80.527344zm0 0" fill="#a5e887"/><path d="m362.632812 363.882812c-22.203124 0-40.261718 18.058594-40.261718 40.261719v58.484375h80.523437v-58.484375c0-22.203125-18.0625-40.261719-40.261719-40.261719zm0 0" fill="#86c42b"/><path d="m108.433594 363.882812h80.527344v98.746094h-80.527344zm0 0" fill="#ffb13b"/><path d="m322.371094 237.214844h80.523437v98.746094h-80.523437zm0 0" fill="#fe8205"/><path d="m54.113281 179.941406h403.105469v30.195313h-403.105469zm0 0" fill="#ffde91"/><path d="m54.113281 309.175781h403.105469v30.199219h-403.105469zm0 0" fill="#ffde91"/><path d="m54.113281 433.320312h403.105469v30.195313h-403.105469zm0 0" fill="#fe8205"/><path d="m255.445312 433.320312h201.773438v30.195313h-201.773438zm0 0" fill="#e56022"/><path d="m255.445312 309.175781h201.773438v30.199219h-201.773438zm0 0" fill="#ffb13b"/><path d="m255.445312 179.941406h201.773438v30.195313h-201.773438zm0 0" fill="#ffb13b"/><path d="m240.230469 37.335938h30.867187v411.082031h-30.867187zm0 0" fill="#fe8205"/><path d="m255.539062 37.335938h15.558594v411.082031h-15.558594zm0 0" fill="#e56022"/></svg>