<svg id="Capa_1" enable-background="new 0 0 512 512" height="512" viewBox="0 0 512 512" width="512" xmlns="http://www.w3.org/2000/svg"><g><path d="m301 422h-90c-8.284 0-15 6.716-15 15v50c0 8.284 6.716 15 15 15h90c8.283 0 15-6.716 15-15v-50c0-8.284-6.717-15-15-15z" fill="#47568c"/><path d="m301 422h-45v80h45c8.283 0 15-6.716 15-15v-50c0-8.284-6.717-15-15-15z" fill="#29376d"/><path d="m406 210h-300c-8.284 0-15 6.716-15 15v212c0 8.284 6.716 15 15 15h300c8.283 0 15-6.716 15-15v-212c0-8.284-6.717-15-15-15z" fill="#61729b"/><path d="m406 210h-150v242h150c8.283 0 15-6.716 15-15v-212c0-8.284-6.717-15-15-15z" fill="#47568c"/><path d="m343.022 322.029c-1.555-2.083-38.634-51.029-87.022-51.029s-85.467 48.946-87.021 51.029c-3.972 5.321-3.972 12.62 0 17.941 1.554 2.084 38.633 51.03 87.021 51.03s85.467-48.946 87.022-51.029c3.971-5.322 3.971-12.62 0-17.942z" fill="#edf5ff"/><path d="m343.022 322.029c-1.555-2.083-38.634-51.029-87.022-51.029v120c48.388 0 85.467-48.946 87.022-51.029 3.971-5.322 3.971-12.62 0-17.942z" fill="#d5e8fe"/><path d="m331 512h-150c-8.284 0-15-6.716-15-15s6.716-15 15-15h150c8.283 0 15 6.716 15 15s-6.717 15-15 15z" fill="#61729b"/><path d="m331 482h-75v30h75c8.283 0 15-6.716 15-15s-6.717-15-15-15z" fill="#47568c"/><path d="m256 180c-8.284 0-15-6.716-15-15v-30c0-8.284 6.716-15 15-15 8.283 0 15 6.716 15 15v30c0 8.284-6.717 15-15 15z" fill="#4bb9ec"/><path d="m345.986 180.001c-2.859 0-5.749-.816-8.307-2.52-6.895-4.596-8.756-13.909-4.16-20.801l20-30c4.595-6.893 13.908-8.754 20.801-4.161 6.894 4.596 8.756 13.909 4.16 20.801l-20 30c-2.889 4.336-7.647 6.681-12.494 6.681z" fill="#0095ff"/><path d="m166.014 180.001c-4.848 0-9.604-2.345-12.494-6.681l-20-30c-4.596-6.893-2.733-16.206 4.16-20.801 6.892-4.594 16.205-2.733 20.801 4.161l20 30c4.596 6.893 2.733 16.206-4.16 20.801-2.557 1.705-5.448 2.52-8.307 2.52z" fill="#4bb9ec"/><path d="m256 120v60c8.283 0 15-6.716 15-15v-30c0-8.284-6.717-15-15-15z" fill="#0095ff"/><path d="m286 0h-60c-8.284 0-15 6.716-15 15v60c0 8.284 6.716 15 15 15h60c8.283 0 15-6.716 15-15v-60c0-8.284-6.717-15-15-15z" fill="#a5e887"/><path d="m286 0h-30v90h30c8.283 0 15-6.716 15-15v-60c0-8.284-6.717-15-15-15z" fill="#00cc76"/><circle cx="106" cy="45" fill="#a5e887" r="45"/><circle cx="406" cy="45" fill="#00cc76" r="45"/></g></svg>