<svg id="Capa_1" enable-background="new 0 0 512 512" height="512" viewBox="0 0 512 512" width="512" xmlns="http://www.w3.org/2000/svg"><g><path d="m165 406h-29.238v-30h29.238c8.276 0 15-6.724 15-15v-30h30v30c0 24.814-20.186 45-45 45z" fill="#b33c24"/><path d="m120 436h60v30h-30z" fill="#17204d"/><path d="m117.085 320.878c-17.461 21.841-27.085 49.248-27.085 77.197v67.925h60v-62.578c0-23.013 9.331-45.542 25.605-61.816z" fill="#283366"/><path d="m150 136h-45c-57.99 0-105 47.01-105 105s47.01 105 105 105h45l30-30v-75-75z" fill="#e64d2e"/><path d="m105 346h45l30-30v-75h-180c0 57.99 47.01 105 105 105z" fill="#b33c24"/><path d="m512 196h-30c0-49.629-40.371-90-90-90v-30c66.167 0 120 53.833 120 120z" fill="#ffe470"/><path d="m452 196h-30c0-16.538-13.462-30-30-30v-30c33.091 0 60 26.909 60 60z" fill="#ffe470"/><path d="m392 406v-30c49.629 0 90-40.371 90-90h30c0 66.167-53.833 120-120 120z" fill="#ffb64c"/><path d="m392 346v-30c16.538 0 30-13.462 30-30h30c0 33.091-26.909 60-60 60z" fill="#ffb64c"/><path d="m377 196h-30v45 45h30c24.814 0 45-20.186 45-45s-20.186-45-45-45z" fill="#e64d2e"/><path d="m377 286c24.814 0 45-20.186 45-45h-75v45z" fill="#b33c24"/><path d="m332 46c0 49.629-41.371 90-91 90h-91v105 105h91c49.629 0 91 40.371 91 90h30v-195-195z" fill="#edf5ff"/><path d="m241 346c49.629 0 91 40.371 91 90h30v-195h-212v105z" fill="#d5e8fe"/></g></svg>