<svg id="Layer_1" enable-background="new 0 0 509.937 509.937" height="512" viewBox="0 0 509.937 509.937" width="512" xmlns="http://www.w3.org/2000/svg"><path d="m493.808 0h-477.679c-8.836 0-16 7.164-16 16v477.937c0 8.836 7.164 16 16 16h477.679c8.836 0 16-7.164 16-16v-477.937c0-8.836-7.164-16-16-16z" fill="#e8e8e8"/><path d="m493.808 0h-477.679c-8.836 0-16 7.164-16 16v117.338c0 8.836 7.164 16 16 16h477.679c8.836 0 16-7.164 16-16v-117.338c0-8.836-7.164-16-16-16z" fill="#a8a8a8"/><path d="m194.616 348.208-45.408-95.147c-5.785-12.123-23.094-12.126-28.88 0l-45.408 95.147c-3.806 7.975-.426 17.525 7.549 21.331 7.974 3.808 17.525.426 21.331-7.549l6.475-13.567h48.986l6.475 13.567c2.745 5.751 8.477 9.113 14.451 9.113 11.641-.002 19.528-12.21 14.429-22.895zm-69.069-31.784 9.222-19.323 9.222 19.323z" fill="#8bc4ff"/><path d="m331.013 375.258h56.196c35.161 0 54.624-40.735 32.969-68.088 21.645-27.343 2.203-68.088-32.969-68.088h-56.196c-8.837 0-16 7.164-16 16v104.177c0 8.836 7.164 15.999 16 15.999zm16-104.176h40.196c5.538 0 10.044 4.506 10.044 10.044s-4.506 10.044-10.044 10.044h-40.196zm0 52.088h40.196c5.538 0 10.044 4.506 10.044 10.044 0 5.539-4.506 10.044-10.044 10.044h-40.196z" fill="#ed4040"/><path d="m250.332 91.911 204.156-1.129c8.836 0 16-7.164 16-16s-7.164-16-16-16l-204.156 1.129c-8.836 0-16 7.164-16 16s7.163 16 16 16z" fill="#6d6d6d"/><circle cx="52.695" cy="75.91" fill="#ed4040" r="15.852"/><circle cx="105.21" cy="75.91" fill="#f4dc4d" r="15.852"/><circle cx="157.725" cy="75.91" fill="#87ce6a" r="15.852"/><path d="m238.404 188.228 1.129 287.68c0 8.836 7.164 16 16 16s16-7.164 16-16l-1.129-287.68c0-8.836-7.164-16-16-16s-16 7.163-16 16z" fill="#7f7f7f"/></svg>