<svg id="Capa_1" enable-background="new 0 0 512 512" height="512" viewBox="0 0 512 512" width="512" xmlns="http://www.w3.org/2000/svg"><g><g><path d="m256 473.418h256v-351.503l-256-26.334-10.666 149.334z" fill="#80aaff"/><path d="m0 121.915v351.503h256v-377.837z" fill="#b3ccff"/><g><path d="m256 38.582-10.666 46.332 10.666 37.001h256v-83.333z" fill="#b3ccff"/><path d="m256 121.915v-83.333h-170.666l-10.667 46.333 10.667 37z" fill="#cce6ff"/></g><path d="m85.334 121.915v-83.333h-85.334v83.333z" fill="#ff4d4d"/></g><g><path d="m104.394 338.28-45.195-45.195 45.195-45.195 21.212 21.213-23.981 23.982 23.982 23.982z" fill="#29376d"/><path d="m407.606 338.28-21.213-21.213 23.982-23.982-23.981-23.982 21.212-21.213 45.195 45.195z" fill="#23305b"/></g><g><path d="m256 394.418h85.333v-202.667h-85.333l-10.667 106.667z" fill="#eaf1ff"/><path d="m170.667 191.751h85.333v202.667h-85.333z" fill="#f9f9f9"/></g><g><path d="m353.185 174.984h-97.185l-10.667 16.767 10.667 13.233h67.185v176.202h-67.185l-10.667 13.232 10.667 16.768h97.185z" fill="#cce6ff"/><path d="m188.815 381.186v-176.202h67.185v-30h-97.185v236.202h97.185v-30z" fill="#d7ebfe"/></g></g></svg>