<svg id="Capa_1" enable-background="new 0 0 512 512" height="512" viewBox="0 0 512 512" width="512" xmlns="http://www.w3.org/2000/svg"><g><path d="m391 135c0 52.8-30.601 98.699-75 120.899l-60-30.899-60 30.899c-44.399-22.2-75-68.099-75-120.899 0-74.401 60.601-135 135-135s135 60.599 135 135z" fill="#59abff"/><path d="m316 255.899c44.399-22.2 75-68.099 75-120.899 0-74.401-60.601-135-135-135v225z" fill="#4d87ff"/><path d="m421 302-165 195-165-195z" fill="#ffdf40"/><path d="m256 497 165-195h-165z" fill="#ffbe40"/><g id="Direct__message_1_"><g><path d="m256 165c-32.999 0-60 26.999-60 60v30.899c17.999 9 38.401 14.101 60 14.101s42.001-5.101 60-14.101v-30.899c0-33.001-27.001-60-60-60z" fill="#f3f5f9"/></g><g><path d="m256 150c-24.814 0-45-20.186-45-45s20.186-45 45-45 45 20.186 45 45-20.186 45-45 45z" fill="#f3f5f9"/></g><g><path d="m487.211 225-51.211-51.211-51.211 51.211 21.211 21.211 15-15v38.789h30v-38.789l15 15z" fill="#59abff"/><path d="m24.789 225 21.211 21.211 15-15v38.789h30v-38.789l15 15 21.211-21.211-51.211-51.211z" fill="#6cf"/></g></g><g><path d="m421 302v210l-87.75-27.751-27.749-87.75z" fill="#cfd7e6"/><path d="m206.499 396.499-27.749 87.75-87.75 27.751v-210z" fill="#e1e6f0"/></g><path d="m421 512h-330l115.499-115.501 49.501 40.501 49.501-40.501z" fill="#f3f5f9"/><g fill="#e1e6f0"><path d="m421 512-115.499-115.501-49.501 40.501v75z"/><path d="m316 255.899v-30.899c0-33.001-27.001-60-60-60v105c21.599 0 42.001-5.101 60-14.101z"/><path d="m301 105c0-24.814-20.186-45-45-45v90c24.814 0 45-20.186 45-45z"/></g></g></svg>