<svg enable-background="new 0 0 512 512" height="512" viewBox="0 0 512 512" width="512" xmlns="http://www.w3.org/2000/svg"><g id="BULINE"><path id="XMLID_230_" d="m512 256c0 70.692-28.654 134.692-74.981 181.019s-110.327 74.981-181.019 74.981-134.692-28.654-181.019-74.981-74.981-110.327-74.981-181.019 28.654-134.692 74.981-181.019 110.327-74.981 181.019-74.981 134.692 28.654 181.019 74.981 74.981 110.327 74.981 181.019z" fill="#f9bd38"/></g><g id="Icons"><g id="XMLID_1046_"><g id="XMLID_1136_" fill="#ba861e"><path id="XMLID_1500_" d="m328.32 32.06v176.69 176.69h-58.885-58.885v53.05 53.05h-25.875-25.875v.68.68c-8.49-3.49-16.753-7.422-24.758-11.769s-15.753-9.106-23.212-14.251c-5.955-4.105-11.728-8.455-17.303-13.036s-10.952-9.394-16.117-14.424c-.315-.31-.632-.622-.95-.935s-.635-.625-.95-.935c-1.14-1.135-2.27-2.28-3.389-3.435s-2.226-2.32-3.321-3.495c-3.19-3.42-6.288-6.928-9.289-10.518s-5.906-7.263-8.711-11.013c-6.595-8.83-12.638-18.1-18.071-27.759s-10.259-19.705-14.419-30.09v-40.885-40.885c0-3.725 1.51-7.097 3.951-9.539s5.814-3.951 9.539-3.951h19.13 19.13v-58.915-58.915c0-3.725 1.51-7.097 3.95-9.539s5.81-3.951 9.53-3.951h52.145 52.145v-46.3-46.3c0-3.725 1.51-7.098 3.951-9.539s5.814-3.951 9.539-3.951h56.755 56.755c3.725 0 7.097 1.51 9.539 3.951s3.951 5.814 3.951 9.539z"/><path id="XMLID_1193_" d="m494.9 207.56v70.3 70.3c-5.43 14.08-12.072 27.56-19.799 40.311s-16.536 24.774-26.301 35.939c-1.97 2.26-3.983 4.485-6.035 6.675s-4.145 4.345-6.275 6.465c-.315.31-.633.622-.95.935s-.635.625-.95.935c-5.165 5.03-10.543 9.843-16.118 14.424s-11.348 8.931-17.303 13.036c-4.365 3.015-8.83 5.898-13.389 8.64s-9.211 5.345-13.951 7.8v-35.92-35.92h-16.165-16.164v-153.54-153.54c0-2.21.898-4.21 2.346-5.657s3.449-2.343 5.654-2.343h6.835 6.835v-20.865-20.865c0-1.22.493-2.325 1.29-3.125s1.9-1.295 3.12-1.295h3.945 3.945v-11.78-11.78c0-1.22.495-2.322 1.295-3.12s1.905-1.29 3.125-1.29h18.72 18.72c1.22 0 2.325.492 3.125 1.29s1.295 1.9 1.295 3.12v11.78 11.78h2.96 2.96c1.22 0 2.325.495 3.125 1.295s1.295 1.905 1.295 3.125v20.865 20.865h6.83 6.83c2.21 0 4.21.895 5.657 2.343s2.343 3.448 2.343 5.657v44.835 44.835h13.835 13.835c3.72 0 7.09 1.51 9.53 3.951s3.95 5.814 3.95 9.539z"/></g><path id="XMLID_1135_" d="m397.628 249.1h-56.125-56.125v-77.11-77.11h52.104 52.104c2.22 0 4.231.9 5.686 2.355s2.355 3.465 2.355 5.686v73.09 73.089z" fill="#ccc"/><path id="XMLID_1134_" d="m380.038 162.131h-10.206-10.206c-1.056 0-2.013-.428-2.705-1.12s-1.12-1.649-1.12-2.705v-18.468-18.468c0-1.056.428-2.013 1.12-2.705s1.649-1.12 2.705-1.12h10.206 10.206c1.056 0 2.013.428 2.705 1.12s1.12 1.649 1.12 2.705v18.468 18.468c0 1.056-.428 2.013-1.12 2.705s-1.649 1.12-2.705 1.12z" fill="#a3a3a3"/><path id="XMLID_1133_" d="m323.838 162.131h-10.206-10.206c-1.056 0-2.013-.428-2.705-1.12s-1.12-1.649-1.12-2.705v-18.468-18.468c0-1.056.428-2.013 1.12-2.705s1.649-1.12 2.705-1.12h10.206 10.206c1.056 0 2.013.428 2.705 1.12s1.12 1.649 1.12 2.705v18.468 18.468c0 1.056-.428 2.013-1.12 2.705s-1.648 1.12-2.705 1.12z" fill="#a3a3a3"/><path id="XMLID_1132_" d="m380.038 232.467h-10.206-10.206c-1.056 0-2.013-.428-2.705-1.12s-1.12-1.649-1.12-2.705v-18.468-18.468c0-1.056.428-2.013 1.12-2.705s1.649-1.12 2.705-1.12h10.206 10.206c1.056 0 2.013.428 2.705 1.12s1.12 1.649 1.12 2.705v18.468 18.468c0 1.056-.428 2.013-1.12 2.705s-1.649 1.12-2.705 1.12z" fill="#a3a3a3"/><path id="XMLID_1131_" d="m323.838 232.467h-10.206-10.206c-1.056 0-2.013-.428-2.705-1.12s-1.12-1.649-1.12-2.705v-18.468-18.468c0-1.056.428-2.013 1.12-2.705s1.649-1.12 2.705-1.12h10.206 10.206c1.056 0 2.013.428 2.705 1.12s1.12 1.649 1.12 2.705v18.468 18.468c0 1.056-.428 2.013-1.12 2.705-.692.691-1.648 1.12-2.705 1.12z" fill="#a3a3a3"/><path id="XMLID_1130_" d="m238.642 439.418h-70.244-70.243v-193.964-193.963c0-3.724 1.509-7.095 3.949-9.535s5.811-3.949 9.535-3.949h56.759 56.759c3.724 0 7.095 1.509 9.535 3.949s3.949 5.811 3.949 9.535v193.964 193.963z" fill="#1f5489"/><g fill="#174972"><path id="XMLID_1129_" d="m153.328 140.212h-13.026-13.026c-1.512 0-2.88-.613-3.871-1.603-.991-.991-1.603-2.359-1.603-3.871v-25.539-25.539c0-1.512.613-2.88 1.603-3.871.991-.991 2.359-1.603 3.871-1.603h13.026 13.026c1.512 0 2.88.613 3.871 1.603s1.603 2.359 1.603 3.871v25.539 25.539c0 1.512-.613 2.88-1.603 3.871s-2.36 1.603-3.871 1.603z"/><path id="XMLID_1128_" d="m213.828 140.212h-13.026-13.026c-1.512 0-2.88-.613-3.871-1.603s-1.603-2.359-1.603-3.871v-25.539-25.539c0-1.512.613-2.88 1.603-3.871s2.359-1.603 3.871-1.603h13.026 13.026c1.512 0 2.88.613 3.871 1.603s1.603 2.359 1.603 3.871v25.539 25.539c0 1.512-.613 2.88-1.603 3.871s-2.36 1.603-3.871 1.603z"/><path id="XMLID_1127_" d="m153.328 224.156h-13.026-13.026c-1.512 0-2.88-.613-3.871-1.603-.991-.991-1.603-2.359-1.603-3.871v-25.539-25.539c0-1.512.613-2.88 1.603-3.871.991-.991 2.359-1.603 3.871-1.603h13.026 13.026c1.512 0 2.88.613 3.871 1.603.991.991 1.603 2.359 1.603 3.871v25.539 25.539c0 1.512-.613 2.88-1.603 3.871-.991.991-2.36 1.603-3.871 1.603z"/><path id="XMLID_1126_" d="m213.828 224.156h-13.026-13.026c-1.512 0-2.88-.613-3.871-1.603-.991-.991-1.603-2.359-1.603-3.871v-25.539-25.539c0-1.512.613-2.88 1.603-3.871.991-.991 2.359-1.603 3.871-1.603h13.026 13.026c1.512 0 2.88.613 3.871 1.603.991.991 1.603 2.359 1.603 3.871v25.539 25.539c0 1.512-.613 2.88-1.603 3.871-.991.991-2.36 1.603-3.871 1.603z"/><path id="XMLID_1125_" d="m153.328 308.101h-13.026-13.026c-1.512 0-2.88-.613-3.871-1.603-.991-.991-1.603-2.359-1.603-3.871v-25.539-25.539c0-1.512.613-2.88 1.603-3.871.991-.991 2.359-1.603 3.871-1.603h13.026 13.026c1.512 0 2.88.613 3.871 1.603s1.603 2.359 1.603 3.871v25.539 25.539c0 1.512-.613 2.88-1.603 3.871-.991.99-2.36 1.603-3.871 1.603z"/><path id="XMLID_1124_" d="m213.828 308.101h-13.026-13.026c-1.512 0-2.88-.613-3.871-1.603-.991-.991-1.603-2.359-1.603-3.871v-25.539-25.539c0-1.512.613-2.88 1.603-3.871s2.359-1.603 3.871-1.603h13.026 13.026c1.512 0 2.88.613 3.871 1.603s1.603 2.359 1.603 3.871v25.539 25.539c0 1.512-.613 2.88-1.603 3.871-.991.99-2.36 1.603-3.871 1.603z"/><path id="XMLID_1123_" d="m153.328 392.045h-13.026-13.026c-1.512 0-2.88-.613-3.871-1.603-.991-.991-1.603-2.359-1.603-3.871v-25.539-25.539c0-1.512.613-2.88 1.603-3.871.991-.991 2.359-1.603 3.871-1.603h13.026 13.026c1.512 0 2.88.613 3.871 1.603.991.991 1.603 2.359 1.603 3.871v25.539 25.539c0 1.512-.613 2.88-1.603 3.871-.991.991-2.36 1.603-3.871 1.603z"/><path id="XMLID_1122_" d="m213.828 392.045h-13.026-13.026c-1.512 0-2.88-.613-3.871-1.603-.991-.991-1.603-2.359-1.603-3.871v-25.539-25.539c0-1.512.613-2.88 1.603-3.871.991-.991 2.359-1.603 3.871-1.603h13.026 13.026c1.512 0 2.88.613 3.871 1.603.991.991 1.603 2.359 1.603 3.871v25.539 25.539c0 1.512-.613 2.88-1.603 3.871-.991.991-2.36 1.603-3.871 1.603z"/></g><path d="m262.802 62.879c-2.209 0-4-1.791-4-4v-41.745c0-2.209 1.791-4 4-4s4 1.791 4 4v41.745c0 2.209-1.791 4-4 4z" fill="#27273d"/><path id="XMLID_1120_" d="m318.925 439.418h-56.124-56.124v-153.54-153.54c0-2.209.895-4.209 2.343-5.657s3.448-2.343 5.657-2.343h48.124 48.124c2.209 0 4.209.895 5.657 2.343s2.343 3.448 2.343 5.657v153.54z" fill="#7ccafd"/><path id="XMLID_1119_" d="m318.925 132.212v3.51 3.51h-43.323-43.323c-2.176 0-4.145.881-5.571 2.306-1.425 1.425-2.306 3.394-2.306 5.57v146.153 146.153h-8.862-8.862v-153.601-153.601c0-2.171.881-4.14 2.306-5.567s3.394-2.31 5.57-2.31h48.247 48.247c2.176 0 4.145.884 5.57 2.31 1.426 1.426 2.307 3.395 2.307 5.567z" fill="#66b3dd"/><path id="XMLID_1118_" d="m292.847 78.187h-30.045-30.045c-1.22 0-2.324.494-3.123 1.294-.799.799-1.294 1.903-1.294 3.123v20.867 20.867h34.462 34.462v-20.867-20.868c0-1.22-.494-2.324-1.294-3.123-.799-.799-1.904-1.293-3.123-1.293z" fill="#7ccafd"/><path id="XMLID_1117_" d="m282.508 50.212h-18.722-18.722c-1.22 0-2.324.494-3.123 1.294-.799.799-1.294 1.903-1.294 3.123v12.322 12.322h23.139 23.139v-12.322-12.322c0-1.22-.494-2.324-1.294-3.123s-1.903-1.294-3.123-1.294z" fill="#7ccafd"/><path id="XMLID_1116_" d="m297.263 111.997h-34.461-34.462v6.169 6.169h34.462 34.461v-6.169z" fill="#559eb7"/><path id="XMLID_1115_" d="m286.925 78.187h-23.139-23.138v-4.388-4.387h23.138 23.139v4.387z" fill="#66b3dd"/><path id="XMLID_1114_" d="m216.97 176.258h9.127 9.127c1.381 0 2.631-.56 3.536-1.464.905-.905 1.464-2.155 1.464-3.536v-9.127-9.127c0-1.381-.56-2.631-1.464-3.536-.905-.905-2.155-1.464-3.536-1.464h-9.127-9.127c-1.381 0-2.631.56-3.536 1.464-.905.905-1.464 2.155-1.464 3.536v9.127 9.127c0 1.381.56 2.631 1.464 3.536.906.905 2.156 1.464 3.536 1.464z" fill="#366fcc"/><path id="XMLID_1113_" d="m253.701 176.258h9.127 9.127c1.381 0 2.631-.56 3.536-1.464.905-.905 1.464-2.155 1.464-3.536v-9.127-9.127c0-1.381-.56-2.631-1.464-3.536-.905-.905-2.155-1.464-3.536-1.464h-9.127-9.127c-1.381 0-2.631.56-3.536 1.464-.905.905-1.464 2.155-1.464 3.536v9.127 9.127c0 1.381.56 2.631 1.464 3.536.905.905 2.155 1.464 3.536 1.464z" fill="#366fcc"/><path id="XMLID_1112_" d="m290.378 176.258h9.127 9.127c1.381 0 2.631-.56 3.536-1.464.905-.905 1.464-2.155 1.464-3.536v-9.127-9.127c0-1.381-.56-2.631-1.464-3.536-.905-.905-2.155-1.464-3.536-1.464h-9.127-9.127c-1.381 0-2.631.56-3.536 1.464-.905.905-1.464 2.155-1.464 3.536v9.127 9.127c0 1.381.56 2.631 1.464 3.536.906.905 2.156 1.464 3.536 1.464z" fill="#366fcc"/><path id="XMLID_1111_" d="m240.224 170.042v.645.645c0 1.364-.551 2.594-1.442 3.484s-2.122 1.439-3.481 1.439h-9.206-9.206c-1.359 0-2.59-.549-3.481-1.439s-1.442-2.121-1.442-3.484v-9.201-9.201c0-1.359.551-2.59 1.442-3.481s2.122-1.442 3.481-1.442h.738.738v8.556 8.556c0 1.359.551 2.59 1.442 3.481s2.122 1.443 3.481 1.443h8.468 8.468z" fill="#2d65b5"/><path id="XMLID_1110_" d="m276.951 170.042v.645.645c0 1.364-.549 2.594-1.439 3.484s-2.121 1.439-3.484 1.439h-9.201-9.201c-1.359 0-2.59-.549-3.481-1.439s-1.442-2.121-1.442-3.484v-9.201-9.201c0-1.359.551-2.59 1.442-3.481s2.122-1.442 3.481-1.442h.738.738v8.556 8.556c0 1.359.551 2.59 1.442 3.481s2.122 1.443 3.481 1.443h8.463 8.463z" fill="#2d65b5"/><path id="XMLID_1109_" d="m313.628 170.042v.645.645c0 1.364-.549 2.594-1.439 3.484s-2.121 1.439-3.484 1.439h-9.201-9.201c-1.359 0-2.59-.549-3.481-1.439s-1.442-2.121-1.442-3.484v-9.201-9.201c0-1.359.551-2.59 1.442-3.481s2.122-1.442 3.481-1.442h.738.738v8.556 8.556c0 1.359.551 2.59 1.442 3.481s2.122 1.443 3.481 1.443h8.463 8.463z" fill="#2d65b5"/><path id="XMLID_1108_" d="m216.97 216.135h9.127 9.127c1.381 0 2.631-.56 3.536-1.464.905-.905 1.464-2.155 1.464-3.536v-9.127-9.127c0-1.381-.56-2.631-1.464-3.536-.905-.905-2.155-1.464-3.536-1.464h-9.127-9.127c-1.381 0-2.631.56-3.536 1.464-.905.905-1.464 2.155-1.464 3.536v9.127 9.127c0 1.381.56 2.631 1.464 3.536.906.905 2.156 1.464 3.536 1.464z" fill="#366fcc"/><path id="XMLID_1107_" d="m253.701 216.135h9.127 9.127c1.381 0 2.631-.56 3.536-1.464.905-.905 1.464-2.155 1.464-3.536v-9.127-9.127c0-1.381-.56-2.631-1.464-3.536-.905-.905-2.155-1.464-3.536-1.464h-9.127-9.127c-1.381 0-2.631.56-3.536 1.464-.905.905-1.464 2.155-1.464 3.536v9.127 9.127c0 1.381.56 2.631 1.464 3.536.905.905 2.155 1.464 3.536 1.464z" fill="#366fcc"/><path id="XMLID_1106_" d="m290.378 216.135h9.127 9.127c1.381 0 2.631-.56 3.536-1.464.905-.905 1.464-2.155 1.464-3.536v-9.127-9.127c0-1.381-.56-2.631-1.464-3.536-.905-.905-2.155-1.464-3.536-1.464h-9.127-9.127c-1.381 0-2.631.56-3.536 1.464-.905.905-1.464 2.155-1.464 3.536v9.127 9.127c0 1.381.56 2.631 1.464 3.536.906.905 2.156 1.464 3.536 1.464z" fill="#366fcc"/><path id="XMLID_1105_" d="m240.224 209.92v.645.645c0 1.364-.551 2.594-1.442 3.484s-2.122 1.439-3.481 1.439h-9.206-9.206c-1.359 0-2.59-.549-3.481-1.439s-1.442-2.121-1.442-3.484v-9.201-9.201c0-1.359.551-2.59 1.442-3.481s2.122-1.442 3.481-1.442h.738.738v8.556 8.556c0 1.359.551 2.59 1.442 3.481s2.122 1.443 3.481 1.443h8.468 8.468z" fill="#2d65b5"/><path id="XMLID_1104_" d="m276.951 209.92v.645.645c0 1.364-.549 2.594-1.439 3.484s-2.121 1.439-3.484 1.439h-9.201-9.201c-1.359 0-2.59-.549-3.481-1.439s-1.442-2.121-1.442-3.484v-9.201-9.201c0-1.359.551-2.59 1.442-3.481s2.122-1.442 3.481-1.442h.738.738v8.556 8.556c0 1.359.551 2.59 1.442 3.481s2.122 1.443 3.481 1.443h8.463 8.463z" fill="#2d65b5"/><path id="XMLID_1103_" d="m313.628 209.92v.645.645c0 1.364-.549 2.594-1.439 3.484s-2.121 1.439-3.484 1.439h-9.201-9.201c-1.359 0-2.59-.549-3.481-1.439s-1.442-2.121-1.442-3.484v-9.201-9.201c0-1.359.551-2.59 1.442-3.481s2.122-1.442 3.481-1.442h.738.738v8.556 8.556c0 1.359.551 2.59 1.442 3.481s2.122 1.443 3.481 1.443h8.463 8.463z" fill="#2d65b5"/><path id="XMLID_1102_" d="m216.97 256.013h9.127 9.127c1.381 0 2.631-.56 3.536-1.464.905-.905 1.464-2.155 1.464-3.536v-9.127-9.127c0-1.381-.56-2.631-1.464-3.536-.905-.905-2.155-1.464-3.536-1.464h-9.127-9.127c-1.381 0-2.631.56-3.536 1.464-.905.905-1.464 2.155-1.464 3.536v9.127 9.127c0 1.381.56 2.631 1.464 3.536.906.904 2.156 1.464 3.536 1.464z" fill="#366fcc"/><path id="XMLID_1101_" d="m253.701 256.013h9.127 9.127c1.381 0 2.631-.56 3.536-1.464.905-.905 1.464-2.155 1.464-3.536v-9.127-9.127c0-1.381-.56-2.631-1.464-3.536-.905-.905-2.155-1.464-3.536-1.464h-9.127-9.127c-1.381 0-2.631.56-3.536 1.464-.905.905-1.464 2.155-1.464 3.536v9.127 9.127c0 1.381.56 2.631 1.464 3.536.905.904 2.155 1.464 3.536 1.464z" fill="#366fcc"/><path id="XMLID_1100_" d="m290.378 256.013h9.127 9.127c1.381 0 2.631-.56 3.536-1.464.905-.905 1.464-2.155 1.464-3.536v-9.127-9.127c0-1.381-.56-2.631-1.464-3.536-.905-.905-2.155-1.464-3.536-1.464h-9.127-9.127c-1.381 0-2.631.56-3.536 1.464-.905.905-1.464 2.155-1.464 3.536v9.127 9.127c0 1.381.56 2.631 1.464 3.536.906.904 2.156 1.464 3.536 1.464z" fill="#366fcc"/><path id="XMLID_1099_" d="m240.224 249.797v.645.645c0 1.364-.551 2.594-1.442 3.484s-2.122 1.439-3.481 1.439h-9.206-9.206c-1.359 0-2.59-.549-3.481-1.439s-1.442-2.121-1.442-3.484v-9.201-9.201c0-1.359.551-2.59 1.442-3.481s2.122-1.442 3.481-1.442h.738.738v8.556 8.556c0 1.359.551 2.59 1.442 3.481s2.122 1.442 3.481 1.442h8.468z" fill="#2d65b5"/><path id="XMLID_1098_" d="m276.951 249.797v.645.645c0 1.364-.549 2.594-1.439 3.484s-2.121 1.439-3.484 1.439h-9.201-9.201c-1.359 0-2.59-.549-3.481-1.439s-1.442-2.121-1.442-3.484v-9.201-9.201c0-1.359.551-2.59 1.442-3.481s2.122-1.442 3.481-1.442h.738.738v8.556 8.556c0 1.359.551 2.59 1.442 3.481s2.122 1.442 3.481 1.442h8.463z" fill="#2d65b5"/><path id="XMLID_1097_" d="m313.628 249.797v.645.645c0 1.364-.549 2.594-1.439 3.484s-2.121 1.439-3.484 1.439h-9.201-9.201c-1.359 0-2.59-.549-3.481-1.439s-1.442-2.121-1.442-3.484v-9.201-9.201c0-1.359.551-2.59 1.442-3.481s2.122-1.442 3.481-1.442h.738.738v8.556 8.556c0 1.359.551 2.59 1.442 3.481s2.122 1.442 3.481 1.442h8.463z" fill="#2d65b5"/><path id="XMLID_1096_" d="m216.97 295.89h9.127 9.127c1.381 0 2.631-.56 3.536-1.464.905-.905 1.464-2.155 1.464-3.536v-9.127-9.127c0-1.381-.56-2.631-1.464-3.536-.905-.905-2.155-1.464-3.536-1.464h-9.127-9.127c-1.381 0-2.631.56-3.536 1.464-.905.905-1.464 2.155-1.464 3.536v9.127 9.127c0 1.381.56 2.631 1.464 3.536.906.904 2.156 1.464 3.536 1.464z" fill="#366fcc"/><path id="XMLID_1095_" d="m253.701 295.89h9.127 9.127c1.381 0 2.631-.56 3.536-1.464.905-.905 1.464-2.155 1.464-3.536v-9.127-9.127c0-1.381-.56-2.631-1.464-3.536s-2.155-1.464-3.536-1.464h-9.127-9.127c-1.381 0-2.631.56-3.536 1.464-.905.905-1.464 2.155-1.464 3.536v9.127 9.127c0 1.381.56 2.631 1.464 3.536.905.904 2.155 1.464 3.536 1.464z" fill="#366fcc"/><path id="XMLID_1094_" d="m290.378 295.89h9.127 9.127c1.381 0 2.631-.56 3.536-1.464.905-.905 1.464-2.155 1.464-3.536v-9.127-9.127c0-1.381-.56-2.631-1.464-3.536-.905-.905-2.155-1.464-3.536-1.464h-9.127-9.127c-1.381 0-2.631.56-3.536 1.464s-1.464 2.155-1.464 3.536v9.127 9.127c0 1.381.56 2.631 1.464 3.536.906.904 2.156 1.464 3.536 1.464z" fill="#366fcc"/><path id="XMLID_1093_" d="m240.224 289.674v.645.645c0 1.364-.551 2.594-1.442 3.484s-2.122 1.439-3.481 1.439h-9.206-9.206c-1.359 0-2.59-.549-3.481-1.439s-1.442-2.121-1.442-3.484v-9.201-9.201c0-1.359.551-2.59 1.442-3.481s2.122-1.442 3.481-1.442h.738.738v8.556 8.556c0 1.359.551 2.59 1.442 3.481s2.122 1.442 3.481 1.442h8.468z" fill="#2d65b5"/><path id="XMLID_1092_" d="m276.951 289.674v.645.645c0 1.364-.549 2.594-1.439 3.484s-2.121 1.439-3.484 1.439h-9.201-9.201c-1.359 0-2.59-.549-3.481-1.439s-1.442-2.121-1.442-3.484v-9.201-9.201c0-1.359.551-2.59 1.442-3.481s2.122-1.442 3.481-1.442h.738.738v8.556 8.556c0 1.359.551 2.59 1.442 3.481s2.122 1.442 3.481 1.442h8.463z" fill="#2d65b5"/><path id="XMLID_1091_" d="m313.628 289.674v.645.645c0 1.364-.549 2.594-1.439 3.484s-2.121 1.439-3.484 1.439h-9.201-9.201c-1.359 0-2.59-.549-3.481-1.439s-1.442-2.121-1.442-3.484v-9.201-9.201c0-1.359.551-2.59 1.442-3.481s2.122-1.442 3.481-1.442h.738.738v8.556 8.556c0 1.359.551 2.59 1.442 3.481s2.122 1.442 3.481 1.442h8.463z" fill="#2d65b5"/><path id="XMLID_1090_" d="m216.97 335.767h9.127 9.127c1.381 0 2.631-.56 3.536-1.464.905-.905 1.464-2.155 1.464-3.536v-9.127-9.127c0-1.381-.56-2.631-1.464-3.536-.905-.905-2.155-1.464-3.536-1.464h-9.127-9.127c-1.381 0-2.631.56-3.536 1.464-.905.905-1.464 2.155-1.464 3.536v9.127 9.127c0 1.381.56 2.631 1.464 3.536.906.905 2.156 1.464 3.536 1.464z" fill="#366fcc"/><path id="XMLID_1089_" d="m253.701 335.767h9.127 9.127c1.381 0 2.631-.56 3.536-1.464.905-.905 1.464-2.155 1.464-3.536v-9.127-9.127c0-1.381-.56-2.631-1.464-3.536s-2.155-1.464-3.536-1.464h-9.127-9.127c-1.381 0-2.631.56-3.536 1.464-.905.905-1.464 2.155-1.464 3.536v9.127 9.127c0 1.381.56 2.631 1.464 3.536.905.905 2.155 1.464 3.536 1.464z" fill="#366fcc"/><path id="XMLID_1087_" d="m290.378 335.767h9.127 9.127c1.381 0 2.631-.56 3.536-1.464.905-.905 1.464-2.155 1.464-3.536v-9.127-9.127c0-1.381-.56-2.631-1.464-3.536-.905-.905-2.155-1.464-3.536-1.464h-9.127-9.127c-1.381 0-2.631.56-3.536 1.464s-1.464 2.155-1.464 3.536v9.127 9.127c0 1.381.56 2.631 1.464 3.536.906.905 2.156 1.464 3.536 1.464z" fill="#366fcc"/><path id="XMLID_1086_" d="m240.224 329.551v.645.645c0 1.364-.551 2.594-1.442 3.484s-2.122 1.439-3.481 1.439h-9.206-9.206c-1.359 0-2.59-.549-3.481-1.439s-1.442-2.121-1.442-3.484v-9.201-9.201c0-1.359.551-2.59 1.442-3.481s2.122-1.442 3.481-1.442h.738.738v8.556 8.556c0 1.359.551 2.59 1.442 3.481s2.122 1.442 3.481 1.442h8.468z" fill="#2d65b5"/><path id="XMLID_1085_" d="m276.951 329.551v.645.645c0 1.364-.549 2.594-1.439 3.484s-2.121 1.439-3.484 1.439h-9.201-9.201c-1.359 0-2.59-.549-3.481-1.439s-1.442-2.121-1.442-3.484v-9.201-9.201c0-1.359.551-2.59 1.442-3.481s2.122-1.442 3.481-1.442h.738.738v8.556 8.556c0 1.359.551 2.59 1.442 3.481s2.122 1.442 3.481 1.442h8.463z" fill="#2d65b5"/><path id="XMLID_1084_" d="m313.628 329.551v.645.645c0 1.364-.549 2.594-1.439 3.484s-2.121 1.439-3.484 1.439h-9.201-9.201c-1.359 0-2.59-.549-3.481-1.439s-1.442-2.121-1.442-3.484v-9.201-9.201c0-1.359.551-2.59 1.442-3.481s2.122-1.442 3.481-1.442h.738.738v8.556 8.556c0 1.359.551 2.59 1.442 3.481s2.122 1.442 3.481 1.442h8.463z" fill="#2d65b5"/><path id="XMLID_1083_" d="m216.97 375.644h9.127 9.127c1.381 0 2.631-.56 3.536-1.464.905-.905 1.464-2.155 1.464-3.536v-9.127-9.127c0-1.381-.56-2.631-1.464-3.536-.905-.905-2.155-1.464-3.536-1.464h-9.127-9.127c-1.381 0-2.631.56-3.536 1.464-.905.905-1.464 2.155-1.464 3.536v9.127 9.127c0 1.381.56 2.631 1.464 3.536.906.905 2.156 1.464 3.536 1.464z" fill="#366fcc"/><path id="XMLID_1082_" d="m253.701 375.644h9.127 9.127c1.381 0 2.631-.56 3.536-1.464.905-.905 1.464-2.155 1.464-3.536v-9.127-9.127c0-1.381-.56-2.631-1.464-3.536s-2.155-1.464-3.536-1.464h-9.127-9.127c-1.381 0-2.631.56-3.536 1.464-.905.905-1.464 2.155-1.464 3.536v9.127 9.127c0 1.381.56 2.631 1.464 3.536.905.905 2.155 1.464 3.536 1.464z" fill="#366fcc"/><path id="XMLID_1081_" d="m290.378 375.644h9.127 9.127c1.381 0 2.631-.56 3.536-1.464.905-.905 1.464-2.155 1.464-3.536v-9.127-9.127c0-1.381-.56-2.631-1.464-3.536-.905-.905-2.155-1.464-3.536-1.464h-9.127-9.127c-1.381 0-2.631.56-3.536 1.464s-1.464 2.155-1.464 3.536v9.127 9.127c0 1.381.56 2.631 1.464 3.536.906.905 2.156 1.464 3.536 1.464z" fill="#366fcc"/><path id="XMLID_1080_" d="m240.224 369.429v.645.645c0 1.364-.551 2.594-1.442 3.484s-2.122 1.439-3.481 1.439h-9.206-9.206c-1.359 0-2.59-.549-3.481-1.439s-1.442-2.121-1.442-3.484v-9.201-9.201c0-1.359.551-2.59 1.442-3.481s2.122-1.442 3.481-1.442h.738.738v8.556 8.556c0 1.359.551 2.59 1.442 3.481s2.122 1.442 3.481 1.442h8.468z" fill="#2d65b5"/><path id="XMLID_1079_" d="m276.951 369.429v.645.645c0 1.364-.549 2.594-1.439 3.484s-2.121 1.439-3.484 1.439h-9.201-9.201c-1.359 0-2.59-.549-3.481-1.439s-1.442-2.121-1.442-3.484v-9.201-9.201c0-1.359.551-2.59 1.442-3.481s2.122-1.442 3.481-1.442h.738.738v8.556 8.556c0 1.359.551 2.59 1.442 3.481s2.122 1.442 3.481 1.442h8.463z" fill="#2d65b5"/><path id="XMLID_1078_" d="m313.628 369.429v.645.645c0 1.364-.549 2.594-1.439 3.484s-2.121 1.439-3.484 1.439h-9.201-9.201c-1.359 0-2.59-.549-3.481-1.439s-1.442-2.121-1.442-3.484v-9.201-9.201c0-1.359.551-2.59 1.442-3.481s2.122-1.442 3.481-1.442h.738.738v8.556 8.556c0 1.359.551 2.59 1.442 3.481s2.122 1.442 3.481 1.442h8.463z" fill="#2d65b5"/><path id="XMLID_1077_" d="m289.281 439.418h-25.319-25.319v-21.688-21.688c0-.607.246-1.156.643-1.553s.947-.643 1.553-.643h23.123 23.123c.607 0 1.156.246 1.553.643s.643.947.643 1.553v21.688z" fill="#2d65b5"/><path id="XMLID_1076_" d="m289.281 429.076v5.169 5.169h-25.32-25.32v-21.701-21.701c0-.601.244-1.142.636-1.534.393-.391.934-.633 1.53-.633h6.302 6.302v8.798 8.798c0 4.869 1.974 9.277 5.165 12.468s7.599 5.165 12.468 5.165h9.118 9.119z" fill="#255a99"/><path id="XMLID_1075_" d="m250.248 96.489c0 3.474 1.408 6.619 3.685 8.896s5.422 3.685 8.896 3.685 6.619-1.408 8.896-3.685 3.685-5.422 3.685-8.896-1.408-6.619-3.685-8.896-5.422-3.685-8.896-3.685-6.619 1.408-8.896 3.685-3.685 5.422-3.685 8.896z" fill="#2d65b5"/><path id="XMLID_1074_" d="m265.903 108.699c-.492.123-.994.217-1.506.279-.512.063-1.034.095-1.566.095-3.476 0-6.622-1.408-8.899-3.685s-3.685-5.423-3.685-8.899 1.408-6.622 3.685-8.899 5.423-3.685 8.899-3.685c.532 0 1.054.032 1.566.095s1.014.156 1.506.279c-2.727.689-5.103 2.27-6.796 4.414-1.694 2.144-2.705 4.852-2.705 7.796s1.012 5.652 2.705 7.796 4.069 3.724 6.796 4.414z" fill="#225899"/><path id="XMLID_1200_" d="m448.8 256.01v84.2 84.2c-1.97 2.26-3.983 4.485-6.035 6.675s-4.145 4.345-6.275 6.465c-.315.31-.633.622-.95.935s-.635.625-.95.935h-57.83-57.83v-91.705-91.705h64.935z" fill="#fff"/><path id="XMLID_1072_" d="m451.151 238.712h-66.113-66.113v8.65 8.65h66.113 66.113c2.389 0 4.551-.968 6.117-2.534s2.534-3.728 2.534-6.117c0-2.389-.968-4.551-2.534-6.117-1.565-1.564-3.728-2.532-6.117-2.532z" fill="#ea8032"/><path id="XMLID_1071_" d="m362.635 318.166h-17.5-17.5v-20.979-20.979c0-.716.29-1.364.76-1.834s1.118-.76 1.834-.76h14.907 14.907c.716 0 1.364.29 1.834.76s.76 1.118.76 1.834v20.979 20.979z" fill="#174972"/><path id="XMLID_1069_" d="m362.635 307.514v5.325 5.325h-17.5-17.5v-20.98-20.98c0-.715.29-1.363.759-1.831.469-.469 1.116-.759 1.831-.759h3.54 3.54v7.981 7.981c0 4.954 2.008 9.438 5.254 12.684s7.731 5.254 12.684 5.254h3.696z" fill="#144260"/><path id="XMLID_1068_" d="m363.984 325.467h-18.849-18.849c-1.008 0-1.921-.409-2.581-1.069-.661-.661-1.069-1.573-1.069-2.581 0-1.008.409-1.921 1.069-2.581.661-.661 1.573-1.069 2.581-1.069h18.849 18.849c1.008 0 1.921.409 2.581 1.069s1.069 1.573 1.069 2.581c0 1.008-.409 1.921-1.069 2.581-.66.661-1.573 1.069-2.581 1.069z" fill="#ea8032"/><path id="XMLID_1067_" d="m429.363 318.166h-17.5-17.5v-20.979-20.979c0-.716.29-1.364.76-1.834.469-.469 1.118-.76 1.834-.76h14.907 14.907c.716 0 1.365.29 1.834.76s.76 1.118.76 1.834v20.979 20.979z" fill="#174972"/><path id="XMLID_1066_" d="m429.363 307.514v5.325 5.325h-17.5-17.5v-20.98-20.98c0-.715.29-1.363.759-1.831.469-.469 1.116-.759 1.831-.759h3.54 3.54v7.981 7.981c0 4.954 2.008 9.438 5.254 12.684s7.731 5.254 12.684 5.254h3.696z" fill="#144260"/><path id="XMLID_1065_" d="m430.713 325.467h-18.849-18.849c-1.008 0-1.921-.409-2.581-1.069-.661-.661-1.069-1.573-1.069-2.581 0-1.008.409-1.921 1.069-2.581.661-.661 1.573-1.069 2.581-1.069h18.849 18.849c1.008 0 1.921.409 2.581 1.069.661.661 1.069 1.573 1.069 2.581 0 1.008-.409 1.921-1.069 2.581-.661.661-1.573 1.069-2.581 1.069z" fill="#ea8032"/><path id="XMLID_1064_" d="m362.635 381.514h-17.5-17.5v-20.979-20.979c0-.716.29-1.364.76-1.834s1.118-.76 1.834-.76h14.907 14.907c.716 0 1.364.29 1.834.76s.76 1.118.76 1.834v20.979 20.979z" fill="#174972"/><path id="XMLID_1063_" d="m362.635 370.862v5.325 5.325h-17.5-17.5v-20.98-20.98c0-.715.29-1.363.759-1.831.469-.469 1.116-.759 1.831-.759h3.54 3.54v7.981 7.981c0 4.954 2.008 9.438 5.254 12.684s7.731 5.254 12.684 5.254h3.696z" fill="#144260"/><path id="XMLID_1062_" d="m363.984 388.816h-18.849-18.849c-1.008 0-1.921-.409-2.581-1.069-.661-.661-1.069-1.573-1.069-2.581 0-1.008.409-1.921 1.069-2.581.661-.661 1.573-1.069 2.581-1.069h18.849 18.849c1.008 0 1.921.409 2.581 1.069.661.661 1.069 1.573 1.069 2.581 0 1.008-.409 1.921-1.069 2.581s-1.573 1.069-2.581 1.069z" fill="#ea8032"/><path id="XMLID_1061_" d="m429.363 381.514h-17.5-17.5v-20.979-20.979c0-.716.29-1.364.76-1.834.469-.469 1.118-.76 1.834-.76h14.907 14.907c.716 0 1.365.29 1.834.76s.76 1.118.76 1.834v20.979 20.979z" fill="#174972"/><path id="XMLID_1060_" d="m429.363 370.862v5.325 5.325h-17.5-17.5v-20.98-20.98c0-.715.29-1.363.759-1.831.469-.469 1.116-.759 1.831-.759h3.54 3.54v7.981 7.981c0 4.954 2.008 9.438 5.254 12.684s7.731 5.254 12.684 5.254h3.696z" fill="#144260"/><path id="XMLID_1059_" d="m430.713 388.816h-18.849-18.849c-1.008 0-1.921-.409-2.581-1.069-.661-.661-1.069-1.573-1.069-2.581 0-1.008.409-1.921 1.069-2.581.661-.661 1.573-1.069 2.581-1.069h18.849 18.849c1.008 0 1.921.409 2.581 1.069.661.661 1.069 1.573 1.069 2.581 0 1.008-.409 1.921-1.069 2.581-.661.66-1.573 1.069-2.581 1.069z" fill="#ea8032"/><path id="XMLID_1058_" d="m397.635 439.418h-18.167-18.167v-20.839-20.839c0-1.075.436-2.049 1.141-2.754s1.678-1.141 2.754-1.141h14.273 14.272c1.075 0 2.049.436 2.754 1.141s1.141 1.678 1.141 2.754v20.839 20.839z" fill="#a04830"/><path id="XMLID_1216_" d="m206.68 224.16v107.63 107.63h-64.635-64.635c-.315-.31-.632-.622-.95-.935s-.635-.625-.95-.935c-1.14-1.135-2.27-2.28-3.389-3.435s-2.226-2.32-3.321-3.495c-3.19-3.42-6.288-6.928-9.289-10.518s-5.906-7.263-8.711-11.013v-92.465-92.464h77.94z" fill="#a9e0ff"/><path id="XMLID_1056_" d="m206.678 198.879h-79.619-79.619c-3.49 0-6.65 1.415-8.937 3.702s-3.702 5.447-3.702 8.937c0 3.49 1.415 6.65 3.702 8.937s5.447 3.702 8.937 3.702h79.619 79.619v-12.639z" fill="#fe4583"/><path id="XMLID_1055_" d="m189.049 267.638h-56.748-56.747c-1.865 0-3.553-.756-4.774-1.978-1.222-1.222-1.978-2.91-1.978-4.774v-7.711-7.711c0-1.865.756-3.553 1.978-4.774 1.222-1.222 2.91-1.978 4.774-1.978h56.748 56.748c1.865 0 3.553.756 4.774 1.978s1.978 2.91 1.978 4.774v7.711 7.711c0 1.865-.756 3.553-1.978 4.774s-2.91 1.978-4.775 1.978z" fill="#2d65b5"/><path id="XMLID_1054_" d="m195.802 256.057v2.435 2.435c0 1.865-.755 3.553-1.976 4.774s-2.909 1.976-4.774 1.976h-56.75-56.75c-1.865 0-3.552-.755-4.774-1.976s-1.976-2.909-1.976-4.774v-7.715-7.715c0-1.86.755-3.547 1.976-4.77s2.909-1.98 4.774-1.98h2.065 2.065v5.275 5.275c0 1.865.755 3.555 1.976 4.779s2.909 1.981 4.774 1.981h54.685z" fill="#295d9b"/><path id="XMLID_1053_" d="m189.049 317.322h-56.748-56.747c-1.865 0-3.553-.756-4.774-1.978-1.222-1.222-1.978-2.91-1.978-4.774v-7.711-7.711c0-1.865.756-3.553 1.978-4.774 1.222-1.222 2.91-1.978 4.774-1.978h56.748 56.748c1.865 0 3.553.756 4.774 1.978s1.978 2.91 1.978 4.774v7.711 7.711c0 1.865-.756 3.553-1.978 4.774s-2.91 1.978-4.775 1.978z" fill="#2d65b5"/><path id="XMLID_1052_" d="m195.802 305.741v2.435 2.435c0 1.865-.755 3.553-1.976 4.774s-2.909 1.976-4.774 1.976h-56.75-56.75c-1.865 0-3.552-.755-4.774-1.976s-1.976-2.909-1.976-4.774v-7.715-7.715c0-1.86.755-3.547 1.976-4.77s2.909-1.98 4.774-1.98h2.065 2.065v5.275 5.275c0 1.865.755 3.555 1.976 4.779s2.909 1.981 4.774 1.981h54.685z" fill="#295d9b"/><path id="XMLID_1051_" d="m189.049 367.007h-56.748-56.747c-1.865 0-3.553-.756-4.774-1.978-1.222-1.222-1.978-2.91-1.978-4.774v-7.711-7.711c0-1.865.756-3.553 1.978-4.774 1.222-1.222 2.91-1.978 4.774-1.978h56.748 56.748c1.865 0 3.553.756 4.774 1.978s1.978 2.91 1.978 4.774v7.711 7.711c0 1.865-.756 3.553-1.978 4.774s-2.91 1.978-4.775 1.978z" fill="#2d65b5"/><path id="XMLID_1050_" d="m195.802 355.425v2.435 2.435c0 1.865-.755 3.553-1.976 4.774s-2.909 1.976-4.774 1.976h-56.75-56.75c-1.865 0-3.552-.755-4.774-1.976-1.221-1.221-1.976-2.909-1.976-4.774v-7.715-7.715c0-1.86.755-3.547 1.976-4.77s2.909-1.98 4.774-1.98h2.065 2.065v5.275 5.275c0 1.865.755 3.555 1.976 4.779s2.909 1.981 4.774 1.981h54.685z" fill="#295d9b"/><path id="XMLID_1153_" d="m195.8 400.49v19.465 19.465h-59.195-59.195c-.315-.31-.632-.622-.95-.935s-.635-.625-.95-.935c-1.14-1.135-2.27-2.28-3.389-3.435s-2.226-2.32-3.321-3.495v-15.065-15.065c0-1.835.745-3.495 1.949-4.696s2.866-1.944 4.701-1.944h56.855 56.855c1.835 0 3.495.742 4.696 1.944s1.944 2.861 1.944 4.696z" fill="#174972"/><path id="XMLID_1171_" d="m436.49 437.55c-.315.31-.633.622-.95.935s-.635.625-.95.935c-5.165 5.03-10.543 9.843-16.118 14.424s-11.348 8.931-17.303 13.036c-4.365 3.015-8.83 5.898-13.389 8.64s-9.211 5.345-13.951 7.8c-17.635 9.165-36.47 16.335-56.208 21.214s-40.376 7.466-61.621 7.466c-17.205 0-34.012-1.698-50.265-4.934s-31.95-8.011-46.935-14.166c-8.49-3.49-16.753-7.422-24.758-11.769s-15.753-9.106-23.212-14.251c-5.955-4.105-11.728-8.455-17.303-13.036s-10.952-9.394-16.117-14.424c-.315-.31-.632-.622-.95-.935s-.635-.625-.95-.935h180.49z" fill="#32314b"/><path id="XMLID_1160_" d="m401.17 466.88c-4.365 3.015-8.83 5.898-13.389 8.64s-9.211 5.345-13.951 7.8c-17.635 9.165-36.47 16.335-56.208 21.214s-40.377 7.466-61.622 7.466c-17.205 0-34.012-1.698-50.265-4.934s-31.95-8.011-46.935-14.166c-8.49-3.49-16.753-7.422-24.758-11.769s-15.753-9.106-23.212-14.251h145.17z" fill="#27273d"/></g></g></svg>