<svg height="512" viewBox="0 0 51 59" width="512" xmlns="http://www.w3.org/2000/svg"><g id="Page-1" fill="none" fill-rule="evenodd"><g id="010---Internet-Service-Provider" fill-rule="nonzero"><path id="Shape" d="m12 45 14-2 14 2 4 10-18 2-18-2z" fill="#3b97d3"/><path id="Shape" d="m22.8712 51h6.2576c.4492135.0000135.8432905.2995692.9635.7324l.9077 3.2676h-10l.9077-3.2676c.1202095-.4328308.5142865-.7323865.9635-.7324z" fill="#285680"/><path id="Shape" d="m8 55v3c0 .5522847.44771525 1 1 1h34c.5522847 0 1-.4477153 1-1v-3z" fill="#2980ba"/><path id="Shape" d="m39.2 24.02c-4.57.19-27.2 2.1-27.2 20.98v-20c.0015928-.5516236.4483764-.9984072 1-1h26c.0671006.0011993.1339906.0078883.2.02z" fill="#3f5c6c"/><path id="Shape" d="m40 25 .0000206 20h-28.0000206c0-18.88 22.63-20.79 27.2-20.98h.01c.1661969.0396795.3204906.1185407.45.23.2176095.1882116.3418607.4622952.34.75z" fill="#35495e"/><g fill="#955ba5"><path id="Shape" d="m15 16c-.5522847 0-1-.4477153-1-1v-14c0-.55228475.4477153-1 1-1s1 .44771525 1 1v14c0 .5522847-.4477153 1-1 1z"/><path id="Shape" d="m18 16h-6c-.5522847 0-1-.4477153-1-1s.4477153-1 1-1h6c.5522847 0 1 .4477153 1 1s-.4477153 1-1 1z"/><path id="Shape" d="m18 2h-6c-.5522847 0-1-.44771525-1-1s.4477153-1 1-1h6c.5522847 0 1 .44771525 1 1s-.4477153 1-1 1z"/><path id="Shape" d="m33 16c-.5522847 0-1-.4477153-1-1v-14c0-.55228475.4477153-1 1-1s1 .44771525 1 1v14c0 .5522847-.4477153 1-1 1z"/><path id="Shape" d="m37.5 9h-4.5c-.5522847 0-1-.44771525-1-1v-7c0-.55228475.4477153-1 1-1h4.5c2.4852814 0 4.5 2.01471863 4.5 4.5s-2.0147186 4.5-4.5 4.5zm-3.5-2h3.5c1.3807119 0 2.5-1.11928813 2.5-2.5s-1.1192881-2.5-2.5-2.5h-3.5z"/><path id="Shape" d="m25.5 9h-1c-2.4841391-.00275556-4.4972444-2.01586091-4.5-4.5-.0053316-1.19704782.4741108-2.3452782 1.3291-3.1831.8363756-.84824782 1.9796778-1.32307033 3.1709-1.3169h1c2.2339076.00827401 4.1258503 1.64911979 4.45 3.8594.0776512.54689997-.30275 1.05319876-.84965 1.13085s-1.0531988-.30275003-1.13085-.84965c-.1801629-1.22625434-1.2300887-2.13634596-2.4695-2.1406h-1c-.6603659-.00356897-1.2940685.26025735-1.7568.7314-.4774207.46428755-.7456736 1.10265157-.7432 1.7686.0014331 1.38011783 1.1198822 2.49856691 2.5 2.5h1c.5522847 0 1 .44771525 1 1s-.4477153 1-1 1z"/><path id="Shape" d="m25.5 16h-1c-2.2339076-.008274-4.1258503-1.6491198-4.45-3.8594-.0707992-.543215.3086371-1.0422787.851004-1.1193057.5423669-.0770271 1.0457512.2966583 1.128996.8381057.1801912 1.2264413 1.2303988 2.1365929 2.47 2.1406h1c1.376742-.0095374 2.4904626-1.123258 2.5-2.5-.0014331-1.3801178-1.1198822-2.49856691-2.5-2.5h-1c-.5522847 0-1-.44771525-1-1s.4477153-1 1-1h1c2.4841391.00275556 4.4972444 2.01586091 4.5 4.5-.0093759 2.4813874-2.0186126 4.4906241-4.5 4.5z"/></g><path id="Shape" d="m7.2813 45c-.30336215.0005064-.59044826-.1371477-.78-.374-8.33590549-10.3808376-7.06258011-25.4757591 2.8945-34.3135.41388883-.35714806 1.0378711-.31573559 1.4009313.092977.3630601.4087127.3306207 1.0332257-.0728313 1.402123-9.15963381 8.1302059-10.33147285 22.01614-2.6639 31.5664.24070008.2998453.28816377.7111414.12208532 1.0579291s-.51628102.5676393-.90078532.5680709z" fill="#e64c3c"/><path id="Shape" d="m44.3994 45.4c-.3880908-.0005583-.7408124-.22561-.9048461-.5773311-.1640337-.3517212-.1097536-.766588.1392461-1.0642689 7.9677898-9.5086989 6.9497409-23.6250979-2.3-31.8921-.4120597-.3678216-.4479216-1.0000403-.0801-1.4121s1.0000403-.4479216 1.4121-.0801c10.055333 8.9860105 11.1623747 24.3312195 2.501 34.6675-.1898553.227537-.4710591.3588681-.7674.3584z" fill="#e64c3c"/><path id="Shape" d="m8 45h-7c-.55228475 0-1-.4477153-1-1s.44771525-1 1-1h6v-6c0-.5522847.44771525-1 1-1s1 .4477153 1 1v7c0 .5522847-.44771525 1-1 1z" fill="#e64c3c"/><path id="Shape" d="m42 19c-.5522847 0-1-.4477153-1-1v-7c0-.5522847.4477153-1 1-1h7c.5522847 0 1 .4477153 1 1s-.4477153 1-1 1h-6v6c0 .5522847-.4477153 1-1 1z" fill="#e64c3c"/><path id="Shape" d="m16 37c-.4043959-.0000863-.7689341-.2437275-.923678-.6173454-.1547439-.373618-.0692299-.8036603.216678-1.0896546l9-9c.3923789-.3789722 1.0160848-.3735524 1.4018186.0121814s.3911536 1.0094397.0121814 1.4018186l-9 9c-.1872865.1878577-.4417329.2933072-.707.293z" fill="#fff"/><path id="Shape" d="m16 32c-.4043959-.0000863-.7689341-.2437275-.923678-.6173454-.1547439-.373618-.0692299-.8036603.216678-1.0896546l3-3c.3923789-.3789722 1.0160848-.3735524 1.4018186.0121814s.3911536 1.0094397.0121814 1.4018186l-3 3c-.1872865.1878577-.4417329.2933072-.707.293z" fill="#fff"/></g></g></svg>