<svg height="512" viewBox="0 0 60 59" width="512" xmlns="http://www.w3.org/2000/svg"><g id="Page-1" fill="none" fill-rule="evenodd"><g id="127---Screen-Settings" fill-rule="nonzero"><path id="Shape" d="m5 0h50c2.209139 0 4 1.790861 4 4v37c0 3.3137085-2.6862915 6-6 6h-46c-3.3137085 0-6-2.6862915-6-6v-37c0-2.209139 1.790861-4 4-4z" fill="#3f5c6c"/><path id="Shape" d="m41 58s-5-2-5-6v-5h-12v5c0 4-5 6-5 6" fill="#2c3e50"/><path id="Shape" d="m30 45c-1.6568542 0-3-1.3431458-3-3 0-.5522847.4477153-1 1-1s1 .4477153 1 1 .4477153 1 1 1 1-.4477153 1-1 .4477153-1 1-1 1 .4477153 1 1c0 1.6568542-1.3431458 3-3 3z" fill="#547580"/><path id="Shape" d="m59 6h-58v32h58z" fill="#67b9cc"/><path id="Shape" d="m59 6v32h-40.71c23.71-8.58 23.71-32 23.71-32z" fill="#2fa8cc"/><g fill="#b0d3f0"><circle id="Oval" cx="30" cy="3" r="1"/><path id="Shape" d="m5 14c.26519481-.0000566.51950727-.1054506.707-.293l3-3c.37897221-.3923789.37355237-1.01608478-.01218142-1.40181858-.3857338-.38573379-1.00943969-.39115363-1.40181858-.01218142l-3 3c-.28590792.2859943-.37142191.7160366-.21667798 1.0896546.15474393.3736179.51928208.6172591.92367798.6173454z"/><path id="Shape" d="m14.707 9.293c-.3904999-.39038194-1.0235001-.39038194-1.414 0l-9 9c-.25995658.2510745-.3642126.6228779-.27269716.9725073.09151544.3496295.3645604.6226744.71418984.7141899.34962943.0915154.72143285-.0127406.97250732-.2726972l9-9c.3903819-.3904999.3903819-1.02350015 0-1.414z"/></g><path id="Shape" d="m59 59h-58c-.55228475 0-1-.4477153-1-1s.44771525-1 1-1h58c.5522847 0 1 .4477153 1 1s-.4477153 1-1 1z" fill="#3f5c6c"/><path id="Shape" d="m44.41 17h-16.41c-1.1045695 0-2 .8954305-2 2s.8954305 2 2 2h29c1.1045695 0 2-.8954305 2-2s-.8954305-2-2-2z" fill="#fff"/><circle id="Oval" cx="49" cy="19" fill="#ff5364" r="5"/><path id="Shape" d="m44.41 39h-16.41c-1.1045695 0-2 .8954305-2 2s.8954305 2 2 2h29c1.1045695 0 2-.8954305 2-2s-.8954305-2-2-2z" fill="#fff"/><circle id="Oval" cx="49" cy="41" fill="#ff5364" r="5"/><path id="Shape" d="m43.59 32h13.41c1.1045695 0 2-.8954305 2-2s-.8954305-2-2-2h-29c-1.1045695 0-2 .8954305-2 2s.8954305 2 2 2z" fill="#fff"/><circle id="Oval" cx="39" cy="30" fill="#ff5364" r="5"/></g></g></svg>