<svg height="512" viewBox="0 0 58 58" width="512" xmlns="http://www.w3.org/2000/svg"><g id="Page-1" fill="none" fill-rule="evenodd"><g id="007---IP-Address" fill-rule="nonzero"><path id="Shape" d="m44.22 11h9.78c1.1032246.0032402 1.9967598.8967754 2 2v41h-54v-41c.0032402-1.1032246.89677542-1.9967598 2-2h9.79" fill="#3b97d3"/><path id="Shape" d="m51.2 15.02c-6.11.19-45.2 2.64-45.2 33.98v-33c.00159279-.5516236.44837635-.9984072 1-1h44c.0671004.0012038.13399.0078927.2.02z" fill="#3f5c6c"/><path id="Shape" d="m52 16 .00002 33h-46.00002c0-31.34 39.09-33.79 45.2-33.98.1692248.0395977.326787.1183788.46.23.2175874.1882282.3418337.462301.34.75z" fill="#35495e"/><path id="Shape" d="m58 50v4c.0002919 1.0609554-.4210417 2.0785407-1.1712505 2.8287495s-1.7677941 1.1715424-2.8287495 1.1712505h-50c-1.06095541.0002919-2.07854066-.4210417-2.82874946-1.1712505-.75020879-.7502088-1.17154242-1.7677941-1.17125054-2.8287495v-4c.00159279-.5516236.44837635-.9984072 1-1h56c.5516236.0015928.9984072.4483764 1 1z" fill="#2980ba"/><path id="Shape" d="m35.7639 53h-13.5278c-.7575666.0000121-1.4501162-.4280067-1.7889-1.1056l-1.4472-2.8944h20l-1.4472 2.8944c-.3387838.6775933-1.0313334 1.1056121-1.7889 1.1056z" fill="#3b97d3"/><path id="Shape" d="m0 54h12c.5522847 0 1-.4477153 1-1s-.4477153-1-1-1h-12z" fill="#285680"/><path id="Shape" d="m17 54h-1c-.5522847 0-1-.4477153-1-1s.4477153-1 1-1h1c.5522847 0 1 .4477153 1 1s-.4477153 1-1 1z" fill="#285680"/><path id="Shape" d="m58 52v2h-12c-.5522847 0-1-.4477153-1-1s.4477153-1 1-1z" fill="#285680"/><path id="Shape" d="m42 54h-1c-.5522847 0-1-.4477153-1-1s.4477153-1 1-1h1c.5522847 0 1 .4477153 1 1s-.4477153 1-1 1z" fill="#285680"/><path id="Shape" d="m41.8229 25.4669.0228.0151-12.2188 18.1905c-.1427662.205201-.3769207.3275417-.6269.3275417s-.4841338-.1223407-.6269-.3275417l-12.2188-18.1905.0228-.0151c-2.1155895-2.8155067-3.2328516-6.2556098-3.1753-9.7769.1708635-8.76057438 7.3561743-15.75422534 16.1181662-15.68823288 8.761992.06599247 15.8411458 7.16707872 15.8800338 15.92923288.0041747 3.4392371-1.1110137 6.786417-3.1771 9.5359z" fill="#e64c3c"/><g fill="#f3d55b"><path id="Shape" d="m24 25c-.5522847 0-1-.4477153-1-1v-14c0-.55228475.4477153-1 1-1s1 .44771525 1 1v14c0 .5522847-.4477153 1-1 1z"/><path id="Shape" d="m27 25h-6c-.5522847 0-1-.4477153-1-1s.4477153-1 1-1h6c.5522847 0 1 .4477153 1 1s-.4477153 1-1 1z"/><path id="Shape" d="m27 11h-6c-.5522847 0-1-.4477153-1-1 0-.55228475.4477153-1 1-1h6c.5522847 0 1 .44771525 1 1 0 .5522847-.4477153 1-1 1z"/><path id="Shape" d="m31 25c-.5522847 0-1-.4477153-1-1v-14c0-.55228475.4477153-1 1-1s1 .44771525 1 1v14c0 .5522847-.4477153 1-1 1z"/><path id="Shape" d="m35.5 18h-4.5c-.5522847 0-1-.4477153-1-1v-7c0-.55228475.4477153-1 1-1h4.5c2.4852814 0 4.5 2.0147186 4.5 4.5s-2.0147186 4.5-4.5 4.5zm-3.5-2h3.5c1.3807119 0 2.5-1.1192881 2.5-2.5s-1.1192881-2.5-2.5-2.5h-3.5z"/></g></g></g></svg>